<svg xmlns="http://www.w3.org/2000/svg" xmlns:xlink="http://www.w3.org/1999/xlink" version="1.1" id="Layer_1" x="0px" y="0px" viewBox="0 0 332 27" style="enable-background:new 0 0 332 27;" xml:space="preserve">
<style type="text/css">
	.st0{fill:#FFFFFF;}
</style>
    <path id="JointheMellogang" class="st0" d="M8.6,25.6c1.9,0,3.3-0.4,4.3-1.2c0.9-1,1.5-2.1,1.8-3.2c0.3-0.9,0.4-2.1,0.4-3.5  c0-0.2,0-1,0-2.2c0-1.3,0-2.2,0-2.7l0,0h0c-0.4-5.9-0.9-9.2-1.6-10.1c-0.4-0.6-1.1-0.9-2-0.9c-0.5,0-1.5,0.2-2.9,0.6  C7.5,3,7,4,7,5.4l0,0l0.8,5.3C8,13,8.1,14.9,8.1,16.7c-0.3,0.8-0.6,1.2-1.1,1.2c-0.4,0-0.7-0.4-0.9-1.2c-0.3-1-0.4-1.5-0.4-1.6  c-0.2-0.4-0.4-0.6-0.8-0.6c-0.4,0-0.8,0.2-1.3,0.6c-0.9,0.7-1.5,1.2-1.9,1.5c-0.6,0.6-0.8,1.3-0.8,2.1c0,0.6,0.2,1.5,0.5,2.5  c0.7,2.4,2.3,3.8,4.9,4.2C6.9,25.5,7.8,25.6,8.6,25.6z M26.9,26c1.8,0,3.4-0.5,4.8-1.5c1.4-1,2.3-2.3,2.9-4l0,0l0,0h0  c0.6-2,0.9-3.8,0.9-5.5c0-1.9-0.6-4.6-1.8-8.1c-0.5-1.6-1.6-2.9-3.2-4c-1.6-1.1-3.2-1.7-4.9-1.7c-0.4,0-0.7,0-1.1,0.1  c-3.7,0.7-6.2,3.8-7.3,9.2c-0.3,1.2-0.4,2.5-0.4,3.9c0,3.1,0.8,5.6,2.4,7.8C21,24.7,23.6,26,26.9,26z M26.7,18.2c-1.3,0.2-2-1-2-3.5  c0-1.4,0.2-2.6,0.6-3.7s0.8-1.6,1.3-1.5c0.3,0,0.5,0.6,0.8,1.7c0.2,1.1,0.3,2.3,0.3,3.5C27.6,16.9,27.3,18.1,26.7,18.2L26.7,18.2  L26.7,18.2z M41.8,25.8c0.2,0,0.5,0,0.9-0.1c1.5-0.4,2.5-1.7,2.9-3.8c0.6-3.3,0.9-7,0.8-11.1l0-0.1c0-0.4,0-1.2-0.1-2.3  c0-1.2-0.1-2.3-0.1-3.1l0,0L46,3.4c-0.2-0.7-0.6-1.2-1.2-1.5c-0.4-0.1-0.8-0.1-1.2-0.1c-2,0-3.6,0.8-4.6,2.4l0,0l-0.8,2.1  c-0.4,2.2-0.6,4.7-0.7,7.6c0,2.7,0.2,5.7,0.7,9.1C38.5,24.8,39.6,25.8,41.8,25.8z M53,25.9c0.5,0.1,1.1-0.1,1.7-0.4  c0.6-0.3,1-0.8,1.2-1.2c0.5-1,0.8-2.4,0.8-4.1c0-1.6-0.2-3.2-0.6-4.8c2.2,6.1,3.8,9.5,4.8,10.1c0.8,0.2,1.5,0.3,2,0.3  c0.4,0,0.8-0.1,1.2-0.2c2.2-0.8,3.3-4.5,3.3-11.2c0-2.2-0.1-4.4-0.3-6.9l0,0v0C66.9,6,66.8,5,66.7,4.5c-0.5-2.3-1.8-3.4-3.8-3.4  c-1.2,0-2,0.4-2.7,1.2c-0.5,0.7-0.8,1.5-0.8,2.5c0,0.9,0.1,2.2,0.4,4c0.1,1,0.3,2.3,0.5,3.6c-0.4-1.8-0.9-3.3-1.3-4.6  c-1.2-3.2-2.4-5.2-3.6-5.8C55,2,54.5,1.9,54.1,1.9c-0.9,0-1.6,0.3-2.3,0.8c-1.2,0.9-2,2-2.3,3.4c-0.4,1.8-0.7,5.4-0.7,10.7  c0,2.7,0.2,4.7,0.6,6C50,24.7,51.2,25.7,53,25.9z M82.5,20.4c0.1,1.7,0.4,3,0.9,3.8c0.8,1.2,2.1,1.8,4.1,1.9c1.2,0,2.1-0.7,2.8-2.3  c0.5-1.2,0.8-2.8,0.8-4.7c0-0.8-0.1-1.7-0.2-2.5c-0.5-4.1-0.8-6.3-0.7-6.6c0-0.1,0.8-0.3,2.3-0.5C93.9,9.2,94.8,9,95,8.8  c0.5-0.5,0.7-1.3,0.8-2.4c0-0.5,0-0.9-0.1-1.2l0,0h0c-0.2-1-0.9-1.9-2.1-2.5c-1.4-0.5-2.4-0.9-3.1-1.2c-1.4-0.3-2.8-0.4-4.1-0.4  c-2.5,0-4.7,0.4-6.4,1.3c-1.4,0.7-2.1,1.7-2.1,2.9c0,0.8,0.3,1.6,0.8,2.4c0.4,0.6,1,1.1,2,1.4c0.7,0.2,1.4,0.3,2.1,0.3  c0.3,0,0.4,0,0.6-0.1c-0.2,0.9-0.3,2-0.4,3.3l0,0l-0.2,4c-0.1,2.2-0.1,3.3-0.1,3.3l0,0L82.5,20.4z M101.4,26c1,0,1.7-0.1,2.1-0.3  c0.6-0.3,1-0.7,1.2-1.2c0.2-0.4,0.2-0.9,0.1-1.6c-0.2-1.1-0.3-1.8-0.4-2.2c0-0.6,0.2-1.1,0.6-1.5c0.4-0.4,0.9-0.6,1.4-0.6  c0.5,0,0.9,0.3,1,0.8c0,0.3,0,0.9-0.1,1.8c-0.1,0.9-0.1,1.5,0,1.8c0.1,1.2,0.6,2.1,1.4,2.6c0.6,0.4,1.4,0.5,2.3,0.3  c1.5-0.3,2.4-1,2.8-2.2c1.1-3.7,1.6-7.1,1.6-10.2c0-1.5-0.1-3.7-0.2-6.6c0-0.7-0.1-1.4-0.3-2.1c-0.1-0.4-0.2-0.7-0.3-1.1  c-0.3-1.2-0.9-1.9-1.9-2.1c-0.3-0.1-0.7-0.1-1.5-0.1c-1,0-1.6,0.1-1.9,0.3c-1.3,0.8-2,1.7-2.1,2.8c0,1.9,0.1,3.4,0.3,4.5  c-0.1,0.8-0.3,1.2-0.5,1.3c-0.4,0.2-0.7,0.3-0.9,0.3c-0.5,0-0.9-0.5-1.1-1.4c0.1-1.7,0.2-3.1,0.3-4.1c0-1.3-0.4-2.2-1-2.9  c-0.5-0.3-1.4-0.5-2.6-0.5c-1.4,0-2.6,0.5-3.5,1.4l0,0h0c-0.8,1.2-1.2,3.8-1.2,7.8c0,1.8,0,4,0.1,6.5c0,1.8,0.3,3.4,0.7,4.8  c0.4,1.3,0.8,2.2,1.3,2.8C99.6,25.6,100.4,26,101.4,26z M123.3,26.2c1.3,0,2.5-0.3,3.5-0.8c1.1-0.6,2-1.4,2.6-2.3  c0.6-0.9,0.9-1.8,0.8-2.7c-0.1-0.8-0.6-1.4-1.4-1.7c-0.5-0.2-1.2-0.2-2.1,0c-0.4-0.3-0.7-0.6-0.7-1.1c0.2-1.1,0.3-1.8,0.2-2  c0.5,0,0.8,0,0.9,0c0.9,0.1,1.8-0.2,2.6-0.9c0.9-0.8,1.3-1.7,1.3-2.8c0-0.3,0-0.7-0.1-1c-0.7-1-1.6-1.5-2.7-1.5  c-0.9,0-1.7,0.2-2.3,0.7c-0.4-0.1-0.6-0.3-0.7-0.6c0-0.1,0.1-0.6,0.1-1.5c0-0.7,0.1-1.2,0.3-1.5c0.2,0,0.4,0,0.7,0  c1.2,0,2.1-0.3,2.8-0.8c0.7-0.6,1-1.3,1-2.2c0-0.4-0.1-0.8-0.2-1.1c-0.3-0.8-1.3-1.2-2.9-1.2c-0.8,0-1.7,0.1-2.6,0.3l0,0l-5.2,0.5  c-0.9,0.6-1.4,1.9-1.7,3.8c-0.5,3.4-0.7,6.4-0.7,9c0,4.6,0.5,7.6,1.3,9c0.8,1,1.4,1.6,1.8,1.8C121.1,25.9,122.2,26.2,123.3,26.2z   M183.5,25.7c0.1,0,0.4-0.1,0.8-0.2c0.6-0.1,1-0.2,1.3-0.3c0.6-0.1,1-0.5,1.4-0.9c0.4-0.6,0.7-1.5,0.7-2.5l0,0l0-0.5  c0-2.2,0-4.9-0.1-8.1c0-1.5,0-3.1-0.1-4.6c-0.1-1.7-0.2-2.9-0.4-3.7c-0.3-1.2-0.9-2.1-1.7-2.8C184.8,1.4,184,1,182.8,1  c-0.7,0-1.5,0.1-2.5,0.4c-1,0.5-1.9,1.8-2.7,4c-0.5,1.5-0.9,2.7-1,3.6c-1.4-4.9-3.6-7.3-6.3-7.2c-1.4,0.4-2.5,1.1-3.3,2.2  s-1.3,2.4-1.4,3.9c-0.3,4.4-0.4,7.5-0.4,9.2c0,1.9,0.2,3.3,0.5,4.2c0.1,0.5,0.6,1.5,1.5,2.9c0.8,0.8,1.6,1.2,2.5,1.2  c0.7,0,1.4-0.2,2.1-0.6c0.7-0.7,1.2-1.5,1.3-2.4c0.1-0.7,0.1-1.7,0-2.9c-0.2-1.7-0.3-2.7-0.3-3c0-0.5,0.1-1.1,0.2-1.6  c0.6,3.4,1.5,5.6,2.6,6.8c0.4,0.2,0.7,0.3,1,0.3c0.4,0,0.8-0.1,1.1-0.4c0.6-0.4,1.2-1.7,1.9-3.7c0.5-1.6,0.9-2.5,1-2.9  c0.2,0.8,0.2,1.8,0,3.1c-0.2,1.7-0.3,2.7-0.3,3.2c0,1.2,0.3,2.2,0.9,3C181.9,25.3,182.6,25.7,183.5,25.7z M196,26.2  c1.3,0,2.5-0.3,3.5-0.8c1.1-0.6,2-1.4,2.6-2.3c0.6-0.9,0.9-1.8,0.8-2.7c-0.1-0.8-0.6-1.4-1.4-1.7c-0.5-0.2-1.2-0.2-2.1,0  c-0.4-0.3-0.7-0.6-0.7-1.1c0.2-1.1,0.3-1.8,0.2-2c0.5,0,0.8,0,0.9,0c0.9,0.1,1.8-0.2,2.6-0.9c0.9-0.8,1.3-1.7,1.3-2.8  c0-0.3,0-0.7-0.1-1c-0.7-1-1.6-1.5-2.7-1.5c-0.9,0-1.7,0.2-2.3,0.7c-0.4-0.1-0.6-0.3-0.7-0.6c0-0.1,0.1-0.6,0.1-1.5  c0-0.7,0.1-1.2,0.3-1.5c0.2,0,0.4,0,0.7,0c1.2,0,2.1-0.3,2.8-0.8s1-1.3,1-2.2c0-0.4-0.1-0.8-0.2-1.1c-0.3-0.8-1.3-1.2-2.9-1.2  c-0.8,0-1.7,0.1-2.6,0.3l0,0l-5.2,0.5c-0.9,0.6-1.4,1.9-1.7,3.8c-0.5,3.4-0.7,6.4-0.7,9c0,4.6,0.5,7.6,1.3,9c0.8,1,1.4,1.6,1.8,1.8  C193.8,25.9,194.9,26.2,196,26.2z M218.9,21.1l0-0.2c-0.1-0.8-0.2-1.4-0.4-1.8c-0.3-0.7-0.7-1.2-1.3-1.4c-0.1-0.1-0.3-0.1-0.6-0.1  c-1.2,0-2.2,0.2-2.9,0.6c-0.1-0.1-0.1-1.2,0.1-3.1c0.3-2.8,0.4-4.9,0.4-6.2c0-2.1-0.2-3.9-0.5-5.3c-0.5-0.8-0.8-1.3-0.9-1.5  c-0.4-0.4-1-0.6-1.9-0.6c-0.3,0-0.5,0-0.8,0c-1,0.1-1.8,0.3-2.3,0.7s-0.9,1.1-1.3,2.2c-0.5,2.5-0.6,5.9-0.5,10.1c0,0.2,0,0.4,0,0.8  c0,0.5,0,0.8,0,1.1l0,0v1.9c0,4.8,2.2,7.2,6.7,7.2c1.5,0,3.1-0.3,4.6-0.9C218,24.1,218.7,22.9,218.9,21.1L218.9,21.1L218.9,21.1z   M233.8,21.1l0-0.2c-0.1-0.8-0.2-1.4-0.4-1.8c-0.3-0.7-0.7-1.2-1.3-1.4c-0.1-0.1-0.3-0.1-0.6-0.1c-1.2,0-2.2,0.2-2.9,0.6  c-0.1-0.1-0.1-1.2,0.1-3.1c0.3-2.8,0.4-4.9,0.4-6.2c0-2.1-0.2-3.9-0.5-5.3c-0.5-0.8-0.8-1.3-0.9-1.5c-0.4-0.4-1-0.6-1.9-0.6  c-0.3,0-0.5,0-0.8,0c-1,0.1-1.8,0.3-2.3,0.7s-0.9,1.1-1.3,2.2c-0.5,2.5-0.6,5.9-0.5,10.1c0,0.2,0,0.4,0,0.8c0,0.5,0,0.8,0,1.1l0,0  v1.9c0,4.8,2.2,7.2,6.7,7.2c1.5,0,3.1-0.3,4.6-0.9C232.9,24.1,233.6,22.9,233.8,21.1L233.8,21.1L233.8,21.1z M245.6,26  c1.8,0,3.4-0.5,4.8-1.5c1.4-1,2.3-2.3,2.9-4l0,0l0,0h0c0.6-2,0.9-3.8,0.9-5.5c0-1.9-0.6-4.6-1.8-8.1c-0.5-1.6-1.6-2.9-3.2-4  c-1.6-1.1-3.2-1.7-4.9-1.7c-0.4,0-0.7,0-1.1,0.1c-3.7,0.7-6.2,3.8-7.3,9.2c-0.3,1.2-0.4,2.5-0.4,3.9c0,3.1,0.8,5.6,2.4,7.8  C239.7,24.7,242.3,26,245.6,26z M245.5,18.2c-1.3,0.2-2-1-2-3.5c0-1.4,0.2-2.6,0.6-3.7c0.4-1.1,0.8-1.6,1.3-1.5  c0.3,0,0.5,0.6,0.8,1.7c0.2,1.1,0.3,2.3,0.3,3.5C246.4,16.9,246.1,18.1,245.5,18.2L245.5,18.2L245.5,18.2z M264.1,26.2  c0.5,0,1,0,1.7-0.1c1.3-0.2,2.4-0.8,3.5-1.8c0.9-0.9,1.6-2,2.1-3.4c0.5-1.2,0.7-2.4,0.7-3.5c0-1-0.2-1.8-0.6-2.4  c-0.6-0.6-1.5-0.9-2.7-0.9c-0.3,0-0.9,0-1.8,0.1c-0.9,0.1-1.4,0.1-1.6,0.1l0,0l-0.8,0.6c-0.4,0.6-0.5,1.2-0.5,1.7  c0,0.2,0.1,0.4,0.4,0.5c0.1,0.1,0.3,0.1,0.6,0.2c0.3,0.3,0.4,0.5,0.3,0.8c-0.2,0.5-0.8,0.8-1.7,0.8c-0.3-0.3-0.5-0.6-0.5-0.9l0,0.1  c0,0,0-0.2,0-0.7l0-0.1c0-2.3,0.7-5.1,2-8.5l0,0l0.2,0c0.2,0.2,0.3,0.4,0.3,0.7l0,0v0.9c0.4,1.2,1.3,1.8,2.6,1.8  c1.4,0.1,2.5-0.4,3.2-1.4c0.5-0.6,0.7-1.5,0.7-2.6c0-0.4,0-0.7-0.1-1.1l0,0H272c-0.2-1.8-1.5-3.5-3.9-5.1c-1-0.5-2.1-0.7-3.3-0.7  c-1.4,0-2.6,0.3-3.7,0.8c-1.6,1-2.9,2.8-3.8,5.2c-0.9,2.4-1.4,5-1.4,7.9c0,2.1,0.3,4,0.8,5.7s1.3,2.9,2.4,3.8  C260.6,25.6,262.2,26.2,264.1,26.2z M278.9,26.3c1.2,0,2.1-0.4,2.7-1.3c0.5-0.9,0.7-1.8,0.7-2.7c0-0.4-0.1-0.7-0.1-0.8  c1.1-0.1,2-0.2,2.9-0.1c0,0.9,0.1,1.6,0.4,2.1c0.1,0.2,0.4,0.6,0.8,1.2c0.6,0.5,1.5,0.7,2.5,0.7c0.6,0,1.1-0.1,1.6-0.2  c1-0.3,1.7-0.9,1.9-1.9l0,0v0c0.3-1.7,0.5-3.6,0.5-5.6c0-3.3-0.6-7.2-1.7-11.6c-0.3-1.2-0.8-2.3-1.6-3.2c-1.3-1.6-3.2-2.4-5.7-2.4  c-2.3,0-4.1,0.8-5.4,2.4c-1.6,2.1-2.7,4.5-3.3,7.1c-0.4,1.9-0.7,4.4-0.9,7.7c0,0.9-0.1,1.4-0.1,1.6c0,3.5,0.9,5.7,2.7,6.6l0,0  l0.1,0.1C277.6,26.1,278.3,26.3,278.9,26.3z M283,15.2c-0.3,0-0.4-0.1-0.5-0.3c-0.1-0.3,0-1.4,0.2-3.3c0.1-1.1,0.3-2.6,0.6-4.3  c0.3-0.3,0.5-0.3,0.7-0.2c0.4,3.6,0.5,6.2,0.3,7.9c-0.1,0-0.3,0-0.6,0.1C283.3,15.2,283.1,15.2,283,15.2z M299,25.9  c0.5,0.1,1.1-0.1,1.7-0.4s1-0.8,1.2-1.2c0.5-1,0.8-2.4,0.8-4.1c0-1.6-0.2-3.2-0.6-4.8c2.2,6.1,3.8,9.5,4.8,10.1  c0.8,0.2,1.5,0.3,2,0.3c0.4,0,0.8-0.1,1.2-0.2c2.2-0.8,3.3-4.5,3.3-11.2c0-2.2-0.1-4.4-0.3-6.9l0,0v0C313,6,312.9,5,312.8,4.5  c-0.5-2.3-1.8-3.4-3.8-3.4c-1.2,0-2,0.4-2.7,1.2c-0.5,0.7-0.8,1.5-0.8,2.5c0,0.9,0.1,2.2,0.4,4c0.1,1,0.3,2.3,0.5,3.6  c-0.4-1.8-0.9-3.3-1.3-4.6c-1.2-3.2-2.4-5.2-3.6-5.8c-0.5-0.1-0.9-0.2-1.4-0.2c-0.9,0-1.6,0.3-2.3,0.8c-1.2,0.9-2,2-2.3,3.4  c-0.4,1.8-0.7,5.4-0.7,10.7c0,2.7,0.2,4.7,0.6,6C296.1,24.7,297.3,25.7,299,25.9z M323.6,26.2c0.5,0,1,0,1.7-0.1  c1.3-0.2,2.4-0.8,3.5-1.8c0.9-0.9,1.6-2,2.1-3.4c0.5-1.2,0.7-2.4,0.7-3.5c0-1-0.2-1.8-0.6-2.4c-0.6-0.6-1.5-0.9-2.7-0.9  c-0.3,0-0.9,0-1.8,0.1c-0.9,0.1-1.4,0.1-1.6,0.1l0,0l-0.8,0.6c-0.4,0.6-0.5,1.2-0.5,1.7c0,0.2,0.1,0.4,0.4,0.5  c0.1,0.1,0.3,0.1,0.6,0.2c0.3,0.3,0.4,0.5,0.3,0.8c-0.2,0.5-0.8,0.8-1.7,0.8c-0.3-0.3-0.5-0.6-0.5-0.9l0,0.1c0,0,0-0.2,0-0.6l0-0.3  c0-2.3,0.7-5.1,2-8.5l0,0l0.2,0c0.2,0.2,0.3,0.4,0.3,0.7l0,0v0.9c0.4,1.2,1.3,1.8,2.6,1.8c1.4,0.1,2.5-0.4,3.2-1.4  c0.5-0.6,0.7-1.5,0.7-2.6c0-0.4,0-0.7-0.1-1.1l0,0h-0.1c-0.2-1.8-1.5-3.5-3.9-5.1c-1-0.5-2.1-0.7-3.3-0.7c-1.4,0-2.6,0.3-3.7,0.8  c-1.6,1-2.9,2.8-3.8,5.2c-0.9,2.4-1.4,5-1.4,7.9c0,2.1,0.3,4,0.8,5.7s1.3,2.9,2.4,3.8C320.2,25.6,321.8,26.2,323.6,26.2z"/>
    <path id="_x23_" class="st0" d="M156,25c0.2,0,0.5,0,0.7-0.1c1.5-0.3,2.2-1.5,2.2-3.6c0-0.6-0.1-1.3-0.2-1.9  c1.9-0.1,2.9-0.1,2.9-0.1c1.2-0.3,1.8-1.2,1.7-2.5c0-1-0.1-1.5-0.2-1.6c-0.5-0.7-1.9-1-4-0.8l0,0l-0.2-2.5l0,0h2.2  c0.8,0,1.5-0.3,2-0.7c0.3-0.7,0.4-1.3,0.4-1.8c0-0.9-0.5-1.7-1.6-2.3c-0.6-0.4-1.6-0.4-2.9-0.1c-0.2-3.6-0.9-5.4-2.2-5.4  c-2.1,0-3.2,1.8-3.3,5.3l0,0H151c-0.1-2.2-0.2-3.4-0.3-3.6c-0.2-0.4-0.5-0.8-0.7-1.1c-0.4-0.5-1-0.7-1.8-0.6c-1,0.1-1.7,0.9-2.1,2.3  c-0.1,0.6-0.2,1.6-0.3,3.1c-0.8,0-1.7,0.1-2.5,0.1c-1.1,0.3-1.7,1-1.9,2.1c-0.2,1.3,0.3,2.2,1.4,2.6c0.5,0.2,1.5,0.4,3,0.5  c0.1,1.1,0.1,2,0.1,2.5c-1.6,0.1-2.6,0.3-3,0.5c-1,0.7-1.5,1.4-1.4,2.2c0,1.2,0.7,1.9,1.9,2.2c0.9,0,1.8,0,2.6,0.1  c0.2,1.8,0.4,2.9,0.5,3.2c0.4,1.3,1.2,1.9,2.3,1.8c0.9-0.1,1.4-0.2,1.7-0.4c0.8-0.7,1.1-2.2,1-4.5c0.9-0.2,1.5-0.2,1.7-0.2  c0.2,0,0.4,0.5,0.4,1.4c0.1,1.2,0.2,2.1,0.4,2.6C154.4,24.5,155,25,156,25z M153.8,14.7l-2.8-0.1l-0.1-2.7h2.7L153.8,14.7z"/>
</svg>